#!OML:ASF C:\ViconDB\ViconDB\414\Spring2016\042216\male.ASF
:FULLY-SPECIFIED
:DEGREES
657
root 46.9044 17.5996 12.6286 184.822 84.0344 182.408
lowerback -4.07489 -0.926825 3.44949
upperback -1.09033 -1.35345 -0.614065
thorax 1.06792 -0.66615 -2.63153
lowerneck 1.07031 18.6602 0.181273
upperneck -1.20347 25.0184 -7.81315
head 0.529726 12.5752 -2.2068
rclavicle 1.56997e-014 1.14301e-015
rhumerus -35.6668 -9.08109 -90.589
rradius 28.9859
rwrist 37.3035
rhand 32.119 -16.5195
rfingers 7.12502
rthumb 55.6013 -34.2141
lclavicle 1.56997e-014 1.14301e-015
lhumerus -36.6297 12.1138 87.3328
lradius 31.5575
lwrist -16.4853
lhand -5.18867 13.4578
lfingers 7.12502
lthumb 20.6121 42.3834
rfemur -7.07174 12.9443 23.8166
rtibia 27.5794
rfoot -23.3027 -15.745
rtoes 0.0258607
lfemur -8.25746 -4.06886 -21.3127
ltibia 30.8802
lfoot -27.9529 15.1468
ltoes -13.3387
658
root 46.8902 17.605 12.632 185.358 83.896 182.885
lowerback -3.96772 -0.872317 3.58171
upperback -1.15441 -1.28003 -0.65981
thorax 0.943177 -0.632508 -2.74662
lowerneck 1.22286 18.5987 0.417254
upperneck -1.38335 24.945 -8.30715
head 0.542842 12.5497 -2.39687
rclavicle 3.22326e-015 -5.50385e-015
rhumerus -35.7475 -9.5926 -90.4488
rradius 28.9942
rwrist 37.7129
rhand 31.2252 -16.8786
rfingers 7.12502
rthumb 54.805 -35.1574
lclavicle 3.22326e-015 -5.50385e-015
lhumerus -36.3736 11.37 87.7117
lradius 31.7447
lwrist -16.1647
lhand -4.90912 13.082
lfingers 7.12502
lthumb 20.8807 41.9783
rfemur -7.19649 12.4549 23.8188
rtibia 27.5004
rfoot -23.1511 -15.4261
rtoes 0.039392
lfemur -8.46115 -3.95565 -21.1932
ltibia 30.9568
lfoot -27.9616 14.8329
ltoes -13.3548
659
root 46.8761 17.6021 12.6339 185.618 83.7586 183.124
lowerback -4.09487 -0.965029 3.40035
upperback -1.00417 -1.40645 -0.539521
thorax 1.1671 -0.690031 -2.53119
lowerneck 1.04397 18.6045 0.404494
upperneck -1.59969 24.9666 -8.90445
head 0.585359 12.5692 -2.55289
rclavicle 1.68054e-014 2.40716e-016
rhumerus -35.4044 -9.50202 -90.4161
rradius 28.924
rwrist 37.8865
rhand 30.7128 -17.2537
rfingers 7.12502
rthumb 54.3466 -35.8547
lclavicle 1.68054e-014 2.40716e-016
lhumerus -35.8718 11.2057 88.157
lradius 32.1382
lwrist -15.718
lhand -4.88979 13.3792
lfingers 7.12502
lthumb 20.8993 42.2734
rfemur -7.24336 12.4524 23.8526
rtibia 27.4251
rfoot -23.1138 -15.5456
rtoes 0.138763
lfemur -8.57682 -3.83871 -21.1132
ltibia 31.0452
lfoot -27.9718 14.5703
ltoes -13.2003
660
root 46.8621 17.5978 12.6357 185.8 83.6375 183.364
lowerback -4.00002 -0.979889 3.35726
upperback -0.970036 -1.42269 -0.513007
thorax 1.14982 -0.698391 -2.47882
lowerneck 1.06221 18.4948 0.405639
upperneck -1.79152 24.8227 -9.3034
head 0.569827 12.5083 -2.683
rclavicle 1.30172e-014 1.17749e-014
rhumerus -35.3211 -9.5709 -90.3641
rradius 28.92
rwrist 38.1859
rhand 30.2656 -17.6026
rfingers 7.12502
rthumb 53.9456 -36.4773
lclavicle 1.30172e-014 1.17749e-014
lhumerus -35.5811 11.0557 88.345
lradius 32.3285
lwrist -15.5713
lhand -5.101 12.8766
lfingers 7.12502
lthumb 20.6964 41.793
rfemur -7.02671 13.9939 24.1031
rtibia 27.3082
rfoot -23.4053 -17.1086
rtoes 0.152084
lfemur -8.70782 -3.66686 -21.0463
ltibia 31.1689
lfoot -27.9848 14.2981
ltoes -13.063
661
root 46.8525 17.5958 12.635 186.132 83.5373 183.738
lowerback -4.01303 -0.937544 3.42346
upperback -0.913238 -1.37101 -0.514574
thorax 1.21735 -0.670669 -2.51628
lowerneck 1.04915 18.3798 0.555737
upperneck -1.9132 24.6851 -9.79468
head 0.613276 12.448 -2.84828
rclavicle 2.09571e-014 -5.00068e-015
rhumerus -35.1961 -9.47848 -90.377
rradius 28.9042
rwrist 38.3347
rhand 29.7284 -17.6967
rfingers 7.12502
rthumb 53.4626 -36.8917
lclavicle 2.09571e-014 -5.00068e-015
lhumerus -35.1857 10.2435 88.9447
lradius 32.7013
lwrist -14.1211
lhand -5.71997 13.5633
lfingers 7.12502
lthumb 20.1015 42.5434
rfemur -6.93802 14.6218 24.2413
rtibia 27.2633
rfoot -23.5307 -17.8063
rtoes 0.150677
lfemur -8.76335 -3.45575 -20.9698
ltibia 31.2176
lfoot -28.0485 14.0191
ltoes -13.3266
662
root 46.8404 17.5997 12.6344 186.222 83.3412 183.755
lowerback -4.08159 -0.96491 3.39308
upperback -0.908697 -1.40888 -0.493953
thorax 1.25904 -0.688742 -2.48132
lowerneck 1.01331 18.2173 0.578699
upperneck -1.97193 24.4816 -10.1427
head 0.640621 12.3524 -2.95696
rclavicle 1.44229e-015 -4.6e-015
rhumerus -35.0455 -9.13049 -90.4696
rradius 28.8501
rwrist 38.3388
rhand 28.7968 -17.9112
rfingers 7.12502
rthumb 52.622 -37.64
lclavicle 1.44229e-015 -4.6e-015
lhumerus -34.9087 10.1967 89.0586
lradius 32.8752
lwrist -14.3362
lhand -5.17704 13.1837
lfingers 7.12502
lthumb 20.6233 42.1081
rfemur -7.0106 14.8114 24.2559
rtibia 27.1995
rfoot -23.5561 -18.1268
rtoes 0.246595
lfemur -8.946 -3.43838 -20.9316
ltibia 31.2676
lfoot -28.025 13.8087
ltoes -13.351
663
root 46.8294 17.6085 12.6316 186.288 83.1805 183.803
lowerback -4.09176 -0.996592 3.35629
upperback -0.89438 -1.45095 -0.444584
thorax 1.27885 -0.709335 -2.41227
lowerneck 0.738126 18.0937 0.27296
upperneck -1.84441 24.3357 -10.1815
head 0.685968 12.2728 -2.90106
rclavicle 1.3674e-014 -1.92573e-015
rhumerus -34.8703 -8.83501 -90.4776
rradius 28.7612
rwrist 38.4315
rhand 27.6973 -18.0969
rfingers 7.12502
rthumb 51.6253 -38.4225
lclavicle 1.3674e-014 -1.92573e-015
lhumerus -34.6794 9.85504 89.4915
lradius 33.3027
lwrist -13.3139
lhand -5.58203 13.4642
lfingers 7.12502
lthumb 20.2341 42.4303
rfemur -7.09015 14.8328 24.2503
rtibia 27.1947
rfoot -23.5787 -18.2789
rtoes 0.0897523
lfemur -9.01842 -3.45985 -20.9077
ltibia 31.2565
lfoot -27.9584 13.6727
ltoes -13.2918
664
root 46.8181 17.6098 12.6285 186.045 83.0285 183.575
lowerback -4.07813 -1.00778 3.33866
upperback -0.872877 -1.46511 -0.45705
thorax 1.29252 -0.716065 -2.41587
lowerneck 0.745473 17.8583 0.503252
upperneck -1.89972 24.0474 -10.7302
head 0.755418 12.1366 -3.10067
rclavicle 1.37682e-014 7.05064e-015
rhumerus -34.6914 -8.54579 -90.5547
rradius 28.6557
rwrist 38.5399
rhand 26.3641 -18.1533
rfingers 7.12502
rthumb 50.4105 -39.1578
lclavicle 1.37682e-014 7.05064e-015
lhumerus -34.4553 9.35752 89.8993
lradius 33.8028
lwrist -12.4586
lhand -5.66874 14.0238
lfingers 7.12502
lthumb 20.1508 42.9987
rfemur -7.08897 14.8311 24.2237
rtibia 27.1742
rfoot -23.6011 -18.4075
rtoes 0.121103
lfemur -9.0634 -3.4128 -20.9247
ltibia 31.2614
lfoot -27.9029 13.5098
ltoes -13.2752
665
root 46.8078 17.604 12.6242 185.757 82.902 183.329
lowerback -4.0442 -1.00876 3.36435
upperback -0.866073 -1.46616 -0.485676
thorax 1.27905 -0.716753 -2.45912
lowerneck 0.691107 17.5481 0.441757
upperneck -1.85972 23.6466 -10.908
head 0.770311 11.9378 -3.15423
rclavicle -1.65783e-014 -1.01318e-014
rhumerus -34.5721 -7.67722 -90.8492
rradius 28.5915
rwrist 38.0207
rhand 24.9594 -18.0859
rfingers 7.12502
rthumb 49.1239 -39.7568
lclavicle -1.65783e-014 -1.01318e-014
lhumerus -34.2794 9.50308 89.9042
lradius 33.8953
lwrist -12.8274
lhand -5.86574 13.4181
lfingers 7.12502
lthumb 19.9614 42.4128
rfemur -7.00588 14.8561 24.212
rtibia 27.1282
rfoot -23.6026 -18.5689
rtoes 0.0674869
lfemur -9.09294 -3.3534 -20.9595
ltibia 31.2952
lfoot -27.9796 13.3659
ltoes -13.1995
